<svg xmlns="http://www.w3.org/2000/svg" width="591" height="661" style="background-color:#fff" viewBox="0 0 591 661">
  <path fill="#dae8fc" stroke="#6c8ebf" stroke-dasharray="3 3" d="M340 340h40v110h-40z"/>
  <path fill="#dae8fc" stroke="#6c8ebf" d="M0 280h120v40H0z"/>
  <text x="60" y="303" font-family="Helvetica" font-size="11" text-anchor="middle">32000 samples</text>
  <path fill="none" stroke="#000" stroke-dasharray="1 2" stroke-miterlimit="10" d="m120 120 80 10"/>
  <path fill="#d5e8d4" stroke="#82b366" d="M0 100h120v40H0z"/>
  <path fill="#ffe6cc" stroke="#d79b00" d="M0 180h120v40H0z"/>
  <path fill="#d5e8d4" stroke="#82b366" d="M0 550h120v50H0z"/>
  <path fill="#dae8fc" stroke="#6c8ebf" d="M0 380h120v20H0z"/>
  <text x="60" y="393" font-family="Helvetica" font-size="11" text-anchor="middle">1600 samples</text>
  <path fill="#dae8fc" stroke="#6c8ebf" d="M0 420h120v20H0z"/>
  <text x="60" y="433" font-family="Helvetica" font-size="11" text-anchor="middle">1600 samples</text>
  <path fill="none" d="M140 0h120v20H140z"/>
  <text x="200" y="15" font-family="Helvetica" font-size="16" text-anchor="middle">Client Timeline</text>
  <path fill="none" d="M480 50h40v20h-40z"/>
  <text x="518" y="64" font-family="Helvetica" font-size="12" text-anchor="end">0.00s</text>
  <path fill="none" stroke="#000" stroke-dasharray="1 2" stroke-miterlimit="10" d="M120 60h70"/>
  <path fill="#e1d5e7" stroke="#9673a6" d="M0 40h120v40H0z"/>
  <text x="60" y="63" font-family="Helvetica" font-size="11" text-anchor="middle">Establish Connection</text>
  <path fill="#dae8fc" stroke="#6c8ebf" d="M0 520h120v20H0z"/>
  <text x="60" y="533" font-family="Helvetica" font-size="11" text-anchor="middle">1040 samples</text>
  <path fill="none" d="M200 90h40v20h-40z"/>
  <text x="238" y="104" font-family="Helvetica" font-size="12" text-anchor="end">0.2s</text>
  <path fill="none" d="M200 50h40v20h-40z"/>
  <text x="238" y="64" font-family="Helvetica" font-size="12" text-anchor="end">0.0s</text>
  <path fill="none" d="M200 130h40v20h-40z"/>
  <text x="238" y="144" font-family="Helvetica" font-size="12" text-anchor="end">0.4s</text>
  <path fill="none" d="M200 250h40v20h-40z"/>
  <text x="238" y="264" font-family="Helvetica" font-size="12" text-anchor="end">7.4s</text>
  <path fill="none" d="M200 480h40v20h-40z"/>
  <text x="238" y="494" font-family="Helvetica" font-size="12" text-anchor="end">36.4s</text>
  <path fill="none" stroke="#000" stroke-dasharray="1 2" stroke-miterlimit="10" d="m120 300 80-30m-80-70 81 50"/>
  <path fill="#dae8fc" stroke="#6c8ebf" d="M0 480h120v20H0z"/>
  <text x="60" y="493" font-family="Helvetica" font-size="11" text-anchor="middle">1600 samples</text>
  <path fill="none" d="M200 520h40v20h-40z"/>
  <text x="238" y="534" font-family="Helvetica" font-size="12" text-anchor="end">36.6s</text>
  <path fill="none" stroke="#000" stroke-miterlimit="10" d="M200 480v110m5-100h-10m10 40h-10"/>
  <path fill="none" stroke="#000" stroke-dasharray="1 2" stroke-miterlimit="10" d="M120 489.75h80M120 635l80-75m-80-30.25 80-9.75m-80 55 80-35"/>
  <path fill="#f2f2f2" stroke="#ccc" stroke-dasharray="3 3" d="M340 60h40v80h-40z"/>
  <path fill="#dae8fc" stroke="#6c8ebf" d="M340 260h40v40h-40zm0 40h40v40h-40zm0 190h40v30h-40zm0-40h40v40h-40z"/>
  <path fill="none" d="M480 130h40v20h-40z"/>
  <text x="518" y="144" font-family="Helvetica" font-size="12" text-anchor="end">2.40s</text>
  <path fill="none" d="M470 480h50v20h-50z"/>
  <text x="518" y="494" font-family="Helvetica" font-size="12" text-anchor="end">36.40s</text>
  <path fill="none" d="M470 510h50v20h-50z"/>
  <text x="518" y="524" font-family="Helvetica" font-size="12" text-anchor="end">36.53s</text>
  <path fill="none" d="M470 440h50v20h-50z"/>
  <text x="518" y="454" font-family="Helvetica" font-size="12" text-anchor="end">36.20s</text>
  <path fill="none" d="M390 330h50v20h-50z"/>
  <text x="438" y="344" font-family="Helvetica" font-size="12" text-anchor="end">58400</text>
  <path fill="none" d="M380 480h60v20h-60z"/>
  <text x="438" y="494" font-family="Helvetica" font-size="12" text-anchor="end">291200</text>
  <path fill="none" d="M380 510h60v20h-60z"/>
  <text x="438" y="524" font-family="Helvetica" font-size="12" text-anchor="end">292240</text>
  <path fill="none" d="M380 440h60v20h-60z"/>
  <text x="438" y="454" font-family="Helvetica" font-size="12" text-anchor="end">289600</text>
  <path fill="none" d="M420 50h20v20h-20z"/>
  <text x="438" y="64" font-family="Helvetica" font-size="12" text-anchor="end">0</text>
  <path fill="none" d="M380 25h60v20h-60z"/>
  <text x="410" y="39" font-family="Helvetica" font-size="12" text-anchor="middle">Samples</text>
  <path fill="none" d="M453 25h90v20h-90z"/>
  <text x="498" y="39" font-family="Helvetica" font-size="12" text-anchor="middle">Sample Time</text>
  <path fill="none" d="M345 0h170v20H345z"/>
  <text x="430" y="15" font-family="Helvetica" font-size="16" text-anchor="middle">Server Audio Timeline</text>
  <path fill="none" stroke="#000" stroke-dasharray="3 3" stroke-miterlimit="10" d="M200 540v50"/>
  <path fill="#dae8fc" stroke="#6c8ebf" d="M0 330h120v40H0z"/>
  <text x="60" y="353" font-family="Helvetica" font-size="11" text-anchor="middle">4000 samples</text>
  <path fill="none" stroke="#000" stroke-miterlimit="10" d="M200 150V60"/>
  <path fill="none" stroke="#000" stroke-miterlimit="10" stroke-width="2" d="M190 60h20m-20 0h20m-20 0h20"/>
  <path fill="none" stroke="#000" stroke-miterlimit="10" d="M195 300h10M195 99.75h10m-10 40h10M195 340h10m-10-80.5h10"/>
  <path fill="#d5e8d4" stroke="#82b366" d="M0 230h120v40H0z"/>
  <path fill="none" stroke="#000" stroke-dasharray="1 2" stroke-miterlimit="10" d="m120 250 80 10"/>
  <path fill="none" d="M200 290h40v20h-40z"/>
  <text x="238" y="304" font-family="Helvetica" font-size="12" text-anchor="end">7.6s</text>
  <path fill="none" d="M200 330h40v20h-40z"/>
  <text x="238" y="344" font-family="Helvetica" font-size="12" text-anchor="end">7.8s</text>
  <path fill="none" stroke="#000" stroke-dasharray="1 2" stroke-miterlimit="10" d="m120 390 80-90m-80 130 80-88m-80 7.5 80-69.5"/>
  <path fill="none" d="M390 130h50v20h-50z"/>
  <text x="438" y="144" font-family="Helvetica" font-size="12" text-anchor="end">19200</text>
  <path fill="#dae8fc" stroke="#6c8ebf" d="M340 140h40v70h-40zm0 70h40v50h-40z"/>
  <path fill="none" d="M390 200h50v20h-50z"/>
  <text x="438" y="214" font-family="Helvetica" font-size="12" text-anchor="end">51200</text>
  <path fill="none" d="M390 250h50v20h-50z"/>
  <text x="438" y="264" font-family="Helvetica" font-size="12" text-anchor="end">55200</text>
  <path fill="none" d="M390 290h50v20h-50z"/>
  <text x="438" y="304" font-family="Helvetica" font-size="12" text-anchor="end">56800</text>
  <path fill="none" d="M480 200h40v20h-40z"/>
  <text x="518" y="214" font-family="Helvetica" font-size="12" text-anchor="end">6.40s</text>
  <path fill="none" d="M480 250h40v20h-40z"/>
  <text x="518" y="264" font-family="Helvetica" font-size="12" text-anchor="end">7.40s</text>
  <path fill="none" d="M480 290h40v20h-40z"/>
  <text x="518" y="304" font-family="Helvetica" font-size="12" text-anchor="end">7.60s</text>
  <path fill="none" d="M480 330h40v20h-40z"/>
  <text x="518" y="344" font-family="Helvetica" font-size="12" text-anchor="end">7.80s</text>
  <path fill="none" stroke="#000" stroke-dasharray="3 3" stroke-miterlimit="10" d="M200 160v70"/>
  <path fill="none" stroke="#900" stroke-miterlimit="10" d="M411 100h-20 9-17.76m5.88-2.33-7 2.33 7 2.33"/>
  <path fill="none" d="M411 90h120v20H411z"/>
  <text x="413" y="105" fill="#C00" font-family="Helvetica" font-size="16">2.4s audio lost</text>
  <path fill="none" stroke="#000" stroke-dasharray="3 3" stroke-miterlimit="10" d="M200 370v100"/>
  <path fill="none" stroke="#000" stroke-miterlimit="10" d="M200 240v120"/>
  <path fill="none" stroke="#900" stroke-miterlimit="10" d="M269.9 162.8V131H267l-64.08-.48"/>
  <path fill="none" stroke="#900" stroke-miterlimit="10" d="m208.82 128.23-7.02 2.28 6.98 2.38M272.03 222l-.03 28h-69.76"/>
  <path fill="none" stroke="#900" stroke-miterlimit="10" d="m208.12 247.67-7 2.33 7 2.33M430 173.96h-47.76m5.88-2.33-7 2.33 7 2.33"/>
  <path fill="none" d="M430 154h140v20H430z"/>
  <text x="432" y="169" fill="#C00" font-family="Helvetica" font-size="16">5s buffered audio</text>
  <path fill="none" stroke="#900" stroke-miterlimit="10" d="M430 174.7h-30v64.8l-17.76-.04"/>
  <path fill="none" stroke="#900" stroke-miterlimit="10" d="m388.12 237.14-7 2.32 6.99 2.35"/>
  <path fill="none" d="M2 102h90v20H2z"/>
  <text x="4" y="115" font-family="Helvetica" font-size="11">&quot;type&quot;: &quot;open&quot;,</text>
  <path fill="none" d="M2 118h100v20H2z"/>
  <text x="4" y="131" font-family="Helvetica" font-size="11">&quot;position&quot;: &quot;PT0S&quot;</text>
  <path fill="none" d="M2 226.5h110v20H2z"/>
  <text x="4" y="240" font-family="Helvetica" font-size="11">&quot;type&quot;: &quot;discarded&quot;,</text>
  <path fill="none" d="M2 240.5h90v20H2z"/>
  <text x="4" y="254" font-family="Helvetica" font-size="11">&quot;start&quot;: &quot;PT0S&quot;,</text>
  <path fill="none" d="M2 253.5h120v20H2z"/>
  <text x="4" y="267" font-family="Helvetica" font-size="11">&quot;discarded&quot;: &quot;PT2.4S&quot;</text>
  <path fill="none" d="M2 557h90v20H2z"/>
  <text x="4" y="570" font-family="Helvetica" font-size="11">&quot;type&quot;: &quot;close&quot;,</text>
  <path fill="none" d="M2 573h120v20H2z"/>
  <text x="4" y="586" font-family="Helvetica" font-size="11">&quot;position&quot;: &quot;PT36.53S&quot;</text>
  <path fill="none" d="M2 190h90v20H2z"/>
  <text x="4" y="203" font-family="Helvetica" font-size="11">&quot;type&quot;: &quot;opened&quot;</text>
  <path fill="none" d="M218 163h100v20H218z"/>
  <text x="268" y="178" fill="#C00" font-family="Helvetica" font-size="16" text-anchor="middle">server takes</text>
  <path fill="none" d="M213 183h110v20H213z"/>
  <text x="268" y="198" fill="#C00" font-family="Helvetica" font-size="16" text-anchor="middle">more than 7s</text>
  <path fill="none" d="M221 202.5h90v20h-90z"/>
  <text x="266" y="217" fill="#C00" font-family="Helvetica" font-size="16" text-anchor="middle">to respond</text>
  <path fill="none" d="M430 174h160v20H430z"/>
  <text x="432" y="189" fill="#C00" font-family="Helvetica" font-size="16">catch up to real-time</text>
  <path fill="#ffe6cc" stroke="#d79b00" d="M0 610h120v50H0z"/>
  <path fill="none" d="M2 627h90v20H2z"/>
  <text x="4" y="640" font-family="Helvetica" font-size="11">&quot;type&quot;: &quot;closed&quot;</text>
</svg>
