<svg xmlns="http://www.w3.org/2000/svg" xmlns:xlink="http://www.w3.org/1999/xlink" width="631" height="523" style="background:0 0;background-color:transparent;color-scheme:light dark" viewBox="0 0 631 523">
  <g data-cell-id="0">
    <g data-cell-id="1">
      <g data-cell-id="n0mJj6IprU6dOBCIdkEI-3">
        <path fill="#D5E8D4" stroke="#82B366" d="M.5 280.5h110v65H.5z"/>
        <text x="55" y="316" fill="light-dark(#000000, #ffffff)" font-family="Helvetica" font-size="12" text-anchor="middle">Discarded</text>
      </g>
      <g data-cell-id="n0mJj6IprU6dOBCIdkEI-4">
        <path fill="#DAE8FC" stroke="#6C8EBF" d="M.5 220.5h110v30H.5z"/>
        <text x="55" y="239" fill="light-dark(#000000, #ffffff)" font-family="Helvetica" font-size="12" text-anchor="middle">Audio</text>
      </g>
      <g data-cell-id="n0mJj6IprU6dOBCIdkEI-5">
        <path fill="#DAE8FC" stroke="#6C8EBF" d="M.5 135.5h110v85H.5z"/>
        <text x="55" y="181" fill="light-dark(#000000, #ffffff)" font-family="Helvetica" font-size="12" text-anchor="middle">...</text>
      </g>
      <g data-cell-id="n0mJj6IprU6dOBCIdkEI-6">
        <path fill="#DAE8FC" stroke="#6C8EBF" d="M.5 105.5h110v30H.5z"/>
        <text x="55" y="124" fill="light-dark(#000000, #ffffff)" font-family="Helvetica" font-size="12" text-anchor="middle">Audio</text>
      </g>
      <g data-cell-id="n0mJj6IprU6dOBCIdkEI-7">
        <path fill="#DAE8FC" stroke="#6C8EBF" d="M.5 75.5h110v30H.5z"/>
        <text x="55" y="94" fill="light-dark(#000000, #ffffff)" font-family="Helvetica" font-size="12" text-anchor="middle">Audio</text>
      </g>
      <g data-cell-id="n0mJj6IprU6dOBCIdkEI-8">
        <path fill="none" d="M100.5 60.5h50v30h-50z"/>
        <text x="148" y="79" fill="light-dark(#000000, #ffffff)" font-family="Helvetica" font-size="12" text-anchor="end">20.0s</text>
      </g>
      <g data-cell-id="n0mJj6IprU6dOBCIdkEI-9">
        <path fill="none" d="M100.5 90.5h50v30h-50z"/>
        <text x="148" y="109" fill="light-dark(#000000, #ffffff)" font-family="Helvetica" font-size="12" text-anchor="end">20.2s</text>
      </g>
      <g data-cell-id="n0mJj6IprU6dOBCIdkEI-10">
        <path fill="none" d="M100.5 120.5h50v30h-50z"/>
        <text x="148" y="139" fill="light-dark(#000000, #ffffff)" font-family="Helvetica" font-size="12" text-anchor="end">20.4s</text>
      </g>
      <g data-cell-id="n0mJj6IprU6dOBCIdkEI-11">
        <path fill="none" d="M100.5 205.5h50v30h-50z"/>
        <text x="148" y="224" fill="light-dark(#000000, #ffffff)" font-family="Helvetica" font-size="12" text-anchor="end">28.6s</text>
      </g>
      <g data-cell-id="n0mJj6IprU6dOBCIdkEI-12">
        <path fill="none" d="M100.5 235.5h50v30h-50z"/>
        <text x="148" y="254" fill="light-dark(#000000, #ffffff)" font-family="Helvetica" font-size="12" text-anchor="end">28.8s</text>
      </g>
      <g data-cell-id="n0mJj6IprU6dOBCIdkEI-13">
        <path fill="none" d="M100.5 480.5h50v30h-50z"/>
        <text x="148" y="499" fill="light-dark(#000000, #ffffff)" font-family="Helvetica" font-size="12" text-anchor="end">40.0s</text>
      </g>
      <g data-cell-id="n0mJj6IprU6dOBCIdkEI-14">
        <path fill="#DAE8FC" stroke="#6C8EBF" d="M.5 250.5h110v30H.5z"/>
        <text x="55" y="269" fill="light-dark(#000000, #ffffff)" font-family="Helvetica" font-size="12" text-anchor="middle">Audio</text>
      </g>
      <g data-cell-id="n0mJj6IprU6dOBCIdkEI-15">
        <path fill="none" d="M100.5 265.5h50v30h-50z"/>
        <text x="148" y="284" fill="light-dark(#000000, #ffffff)" font-family="Helvetica" font-size="12" text-anchor="end">29.0s</text>
      </g>
      <g data-cell-id="n0mJj6IprU6dOBCIdkEI-16">
        <path fill="#DAE8FC" stroke="#6C8EBF" d="M.5 45.5h110v30H.5z"/>
        <text x="55" y="64" fill="light-dark(#000000, #ffffff)" font-family="Helvetica" font-size="12" text-anchor="middle">Audio</text>
      </g>
      <g data-cell-id="n0mJj6IprU6dOBCIdkEI-17">
        <path fill="none" d="M100.5 30.5h50v30h-50z"/>
        <text x="148" y="49" fill="light-dark(#000000, #ffffff)" font-family="Helvetica" font-size="12" text-anchor="end">19.8s</text>
      </g>
      <g data-cell-id="n0mJj6IprU6dOBCIdkEI-18">
        <path fill="#DAE8FC" stroke="#6C8EBF" d="M.5 15.5h110v30H.5z"/>
        <text x="55" y="34" fill="light-dark(#000000, #ffffff)" font-family="Helvetica" font-size="12" text-anchor="middle">Audio</text>
      </g>
      <g data-cell-id="n0mJj6IprU6dOBCIdkEI-19">
        <path fill="none" d="M100.5.5h50v30h-50z"/>
        <text x="148" y="19" fill="light-dark(#000000, #ffffff)" font-family="Helvetica" font-size="12" text-anchor="end">19.6s</text>
      </g>
      <g data-cell-id="n0mJj6IprU6dOBCIdkEI-21">
        <path fill="none" d="M210.5 480.5h100v30h-100z"/>
        <text x="212" y="500" fill="#C00" font-family="Helvetica" font-size="16">Reconnect</text>
      </g>
      <g data-cell-id="n0mJj6IprU6dOBCIdkEI-24">
        <path fill="#F5F5F5" stroke="#666" stroke-miterlimit="10" d="M200.5 495h-20V94.01H170L190.5 76 211 94.01h-10.5Z"/>
        <text x="190" y="288" fill="light-dark(#000000, #ffffff)" data-cell-id="n0mJj6IprU6dOBCIdkEI-25" font-family="Helvetica" font-size="11" text-anchor="middle" transform="rotate(-90 189.5 284.5)">20s of history, which includes the discarded audio</text>
      </g>
      <g data-cell-id="n0mJj6IprU6dOBCIdkEI-26">
        <path fill="#DAE8FC" stroke="#6C8EBF" d="M.5 345.5h110v30H.5z"/>
        <text x="55" y="364" fill="light-dark(#000000, #ffffff)" font-family="Helvetica" font-size="12" text-anchor="middle">Audio</text>
      </g>
      <g data-cell-id="n0mJj6IprU6dOBCIdkEI-27">
        <path fill="#DAE8FC" stroke="#6C8EBF" d="M.5 375.5h110v30H.5z"/>
        <text x="55" y="394" fill="light-dark(#000000, #ffffff)" font-family="Helvetica" font-size="12" text-anchor="middle">Audio</text>
      </g>
      <g data-cell-id="n0mJj6IprU6dOBCIdkEI-28">
        <path fill="#DAE8FC" stroke="#6C8EBF" d="M.5 405.5h110v30H.5z"/>
        <text x="55" y="424" fill="light-dark(#000000, #ffffff)" font-family="Helvetica" font-size="12" text-anchor="middle">Audio</text>
      </g>
      <g data-cell-id="n0mJj6IprU6dOBCIdkEI-29">
        <path fill="#DAE8FC" stroke="#6C8EBF" d="M.5 435.5h110v30H.5z"/>
        <text x="55" y="454" fill="light-dark(#000000, #ffffff)" font-family="Helvetica" font-size="12" text-anchor="middle">Audio</text>
      </g>
      <g data-cell-id="n0mJj6IprU6dOBCIdkEI-30">
        <path fill="#DAE8FC" stroke="#6C8EBF" d="M.5 465.5h110v30H.5z"/>
        <text x="55" y="484" fill="light-dark(#000000, #ffffff)" font-family="Helvetica" font-size="12" text-anchor="middle">Audio</text>
      </g>
      <path fill="none" stroke="light-dark(rgb(0, 0, 0), rgb(255, 255, 255))" stroke-miterlimit="10" stroke-width="6" d="M.5 495.5h110" data-cell-id="n0mJj6IprU6dOBCIdkEI-2"/>
      <g data-cell-id="n0mJj6IprU6dOBCIdkEI-31">
        <path fill="none" d="M100.5 390.5h50v30h-50z"/>
        <text x="148" y="409" fill="light-dark(#000000, #ffffff)" font-family="Helvetica" font-size="12" text-anchor="end">39.4s</text>
      </g>
      <g data-cell-id="n0mJj6IprU6dOBCIdkEI-32">
        <path fill="none" d="M100.5 420.5h50v30h-50z"/>
        <text x="148" y="439" fill="light-dark(#000000, #ffffff)" font-family="Helvetica" font-size="12" text-anchor="end">39.6s</text>
      </g>
      <g data-cell-id="n0mJj6IprU6dOBCIdkEI-33">
        <path fill="none" d="M100.5 450.5h50v30h-50z"/>
        <text x="148" y="469" fill="light-dark(#000000, #ffffff)" font-family="Helvetica" font-size="12" text-anchor="end">39.8s</text>
      </g>
      <g data-cell-id="n0mJj6IprU6dOBCIdkEI-34">
        <path fill="none" d="M100.5 360.5h50v30h-50z"/>
        <text x="148" y="379" fill="light-dark(#000000, #ffffff)" font-family="Helvetica" font-size="12" text-anchor="end">39.2s</text>
      </g>
      <g data-cell-id="n0mJj6IprU6dOBCIdkEI-35">
        <path fill="none" d="M100.5 330.5h50v30h-50z"/>
        <text x="148" y="349" fill="light-dark(#000000, #ffffff)" font-family="Helvetica" font-size="12" text-anchor="end">39.0s</text>
      </g>
      <g data-cell-id="n0mJj6IprU6dOBCIdkEI-36">
        <path fill="#D5E8D4" stroke="#82B366" d="M320.5 75.5h110v60h-110z"/>
        <text x="375" y="109" fill="light-dark(#000000, #ffffff)" font-family="Helvetica" font-size="12" text-anchor="middle">Discarded</text>
      </g>
      <g data-cell-id="n0mJj6IprU6dOBCIdkEI-38">
        <path fill="#DAE8FC" stroke="#6C8EBF" d="M320.5 195.5h110v150h-110z"/>
        <text x="375" y="274" fill="light-dark(#000000, #ffffff)" font-family="Helvetica" font-size="12" text-anchor="middle">...</text>
      </g>
      <g data-cell-id="n0mJj6IprU6dOBCIdkEI-39">
        <path fill="#DAE8FC" stroke="#6C8EBF" d="M320.5 165.5h110v30h-110z"/>
        <text x="375" y="184" fill="light-dark(#000000, #ffffff)" font-family="Helvetica" font-size="12" text-anchor="middle">Audio</text>
      </g>
      <g data-cell-id="n0mJj6IprU6dOBCIdkEI-40">
        <path fill="#DAE8FC" stroke="#6C8EBF" d="M320.5 135.5h110v30h-110z"/>
        <text x="375" y="154" fill="light-dark(#000000, #ffffff)" font-family="Helvetica" font-size="12" text-anchor="middle">Audio</text>
      </g>
      <g data-cell-id="n0mJj6IprU6dOBCIdkEI-41">
        <path fill="none" d="M420.5 60.5h50v30h-50z"/>
        <text x="468" y="79" fill="light-dark(#000000, #ffffff)" font-family="Helvetica" font-size="12" text-anchor="end">15.0s</text>
      </g>
      <g data-cell-id="n0mJj6IprU6dOBCIdkEI-44">
        <path fill="none" d="M420.5 120.5h50v30h-50z"/>
        <text x="468" y="139" fill="light-dark(#000000, #ffffff)" font-family="Helvetica" font-size="12" text-anchor="end">25.0s</text>
      </g>
      <g data-cell-id="n0mJj6IprU6dOBCIdkEI-45">
        <path fill="none" d="M420.5 150.5h50v30h-50z"/>
        <text x="468" y="169" fill="light-dark(#000000, #ffffff)" font-family="Helvetica" font-size="12" text-anchor="end">25.2s</text>
      </g>
      <g data-cell-id="n0mJj6IprU6dOBCIdkEI-46">
        <path fill="none" d="M420.5 480.5h50v30h-50z"/>
        <text x="468" y="499" fill="light-dark(#000000, #ffffff)" font-family="Helvetica" font-size="12" text-anchor="end">40.0s</text>
      </g>
      <g data-cell-id="n0mJj6IprU6dOBCIdkEI-48">
        <path fill="none" d="M420.5 180.5h50v30h-50z"/>
        <text x="468" y="199" fill="light-dark(#000000, #ffffff)" font-family="Helvetica" font-size="12" text-anchor="end">25.4s</text>
      </g>
      <g data-cell-id="n0mJj6IprU6dOBCIdkEI-49">
        <path fill="#DAE8FC" stroke="#6C8EBF" d="M320.5 45.5h110v30h-110z"/>
        <text x="375" y="64" fill="light-dark(#000000, #ffffff)" font-family="Helvetica" font-size="12" text-anchor="middle">Audio</text>
      </g>
      <g data-cell-id="n0mJj6IprU6dOBCIdkEI-50">
        <path fill="none" d="M420.5 30.5h50v30h-50z"/>
        <text x="468" y="49" fill="light-dark(#000000, #ffffff)" font-family="Helvetica" font-size="12" text-anchor="end">14.8s</text>
      </g>
      <g data-cell-id="n0mJj6IprU6dOBCIdkEI-51">
        <path fill="#DAE8FC" stroke="#6C8EBF" d="M320.5 15.5h110v30h-110z"/>
        <text x="375" y="34" fill="light-dark(#000000, #ffffff)" font-family="Helvetica" font-size="12" text-anchor="middle">Audio</text>
      </g>
      <g data-cell-id="n0mJj6IprU6dOBCIdkEI-52">
        <path fill="none" d="M420.5.5h50v30h-50z"/>
        <text x="468" y="19" fill="light-dark(#000000, #ffffff)" font-family="Helvetica" font-size="12" text-anchor="end">14.6s</text>
      </g>
      <g data-cell-id="n0mJj6IprU6dOBCIdkEI-54">
        <path fill="none" d="M530.5 480.5h100v30h-100z"/>
        <text x="532" y="500" fill="#C00" font-family="Helvetica" font-size="16">Reconnect</text>
      </g>
      <g data-cell-id="n0mJj6IprU6dOBCIdkEI-55">
        <path fill="#F5F5F5" stroke="#666" stroke-miterlimit="10" d="M520.5 495h-20V94.01H490L510.5 76 531 94.01h-10.5Z"/>
        <text x="510" y="288" fill="light-dark(#000000, #ffffff)" data-cell-id="n0mJj6IprU6dOBCIdkEI-56" font-family="Helvetica" font-size="11" text-anchor="middle" transform="rotate(-90 509.5 284.5)">20s of history, or until closest audio frame</text>
      </g>
      <g data-cell-id="n0mJj6IprU6dOBCIdkEI-57">
        <path fill="#DAE8FC" stroke="#6C8EBF" d="M320.5 345.5h110v30h-110z"/>
        <text x="375" y="364" fill="light-dark(#000000, #ffffff)" font-family="Helvetica" font-size="12" text-anchor="middle">Audio</text>
      </g>
      <g data-cell-id="n0mJj6IprU6dOBCIdkEI-58">
        <path fill="#DAE8FC" stroke="#6C8EBF" d="M320.5 375.5h110v30h-110z"/>
        <text x="375" y="394" fill="light-dark(#000000, #ffffff)" font-family="Helvetica" font-size="12" text-anchor="middle">Audio</text>
      </g>
      <g data-cell-id="n0mJj6IprU6dOBCIdkEI-59">
        <path fill="#DAE8FC" stroke="#6C8EBF" d="M320.5 405.5h110v30h-110z"/>
        <text x="375" y="424" fill="light-dark(#000000, #ffffff)" font-family="Helvetica" font-size="12" text-anchor="middle">Audio</text>
      </g>
      <g data-cell-id="n0mJj6IprU6dOBCIdkEI-60">
        <path fill="#DAE8FC" stroke="#6C8EBF" d="M320.5 435.5h110v30h-110z"/>
        <text x="375" y="454" fill="light-dark(#000000, #ffffff)" font-family="Helvetica" font-size="12" text-anchor="middle">Audio</text>
      </g>
      <g data-cell-id="n0mJj6IprU6dOBCIdkEI-61">
        <path fill="#DAE8FC" stroke="#6C8EBF" d="M320.5 465.5h110v30h-110z"/>
        <text x="375" y="484" fill="light-dark(#000000, #ffffff)" font-family="Helvetica" font-size="12" text-anchor="middle">Audio</text>
      </g>
      <path fill="none" stroke="light-dark(rgb(0, 0, 0), rgb(255, 255, 255))" stroke-miterlimit="10" stroke-width="6" d="M320.5 495.5h110" data-cell-id="n0mJj6IprU6dOBCIdkEI-62"/>
      <g data-cell-id="n0mJj6IprU6dOBCIdkEI-63">
        <path fill="none" d="M420.5 390.5h50v30h-50z"/>
        <text x="468" y="409" fill="light-dark(#000000, #ffffff)" font-family="Helvetica" font-size="12" text-anchor="end">39.4s</text>
      </g>
      <g data-cell-id="n0mJj6IprU6dOBCIdkEI-64">
        <path fill="none" d="M420.5 420.5h50v30h-50z"/>
        <text x="468" y="439" fill="light-dark(#000000, #ffffff)" font-family="Helvetica" font-size="12" text-anchor="end">39.6s</text>
      </g>
      <g data-cell-id="n0mJj6IprU6dOBCIdkEI-65">
        <path fill="none" d="M420.5 450.5h50v30h-50z"/>
        <text x="468" y="469" fill="light-dark(#000000, #ffffff)" font-family="Helvetica" font-size="12" text-anchor="end">39.8s</text>
      </g>
      <g data-cell-id="n0mJj6IprU6dOBCIdkEI-66">
        <path fill="none" d="M420.5 360.5h50v30h-50z"/>
        <text x="468" y="379" fill="light-dark(#000000, #ffffff)" font-family="Helvetica" font-size="12" text-anchor="end">39.2s</text>
      </g>
      <g data-cell-id="n0mJj6IprU6dOBCIdkEI-67">
        <path fill="none" d="M420.5 330.5h50v30h-50z"/>
        <text x="468" y="349" fill="light-dark(#000000, #ffffff)" font-family="Helvetica" font-size="12" text-anchor="end">39.0s</text>
      </g>
      <g fill="none" stroke="#900" stroke-miterlimit="10" stroke-width="3" data-cell-id="n0mJj6IprU6dOBCIdkEI-20">
        <path d="M209.5 495.5h-24l-18.29-.37"/>
        <path d="m172.91 492.25-9.06 2.82 8.94 3.18"/>
      </g>
      <g fill="none" stroke="#900" stroke-miterlimit="10" stroke-width="3" data-cell-id="n0mJj6IprU6dOBCIdkEI-69">
        <path d="M210.5 75h-24l-18.29-.37"/>
        <path d="m173.91 71.75-9.06 2.82 8.94 3.18"/>
      </g>
      <g fill="none" stroke="#900" stroke-miterlimit="10" stroke-width="3" data-cell-id="n0mJj6IprU6dOBCIdkEI-70">
        <path d="M530.5 496h-24l-18.29-.37"/>
        <path d="m493.91 492.75-9.06 2.82 8.94 3.18"/>
      </g>
      <g fill="none" stroke="#900" stroke-miterlimit="10" stroke-width="3" data-cell-id="n0mJj6IprU6dOBCIdkEI-72">
        <path d="M529.5 75h-24l-18.29-.37"/>
        <path d="m492.91 71.75-9.06 2.82 8.94 3.18"/>
      </g>
      <g data-cell-id="n0mJj6IprU6dOBCIdkEI-73">
        <path fill="none" d="M26.5 493.5h40v30h-40z"/>
        <text x="64" y="512" fill="light-dark(#000000, #ffffff)" font-family="Helvetica" font-size="12" text-anchor="end">(1)</text>
      </g>
      <g data-cell-id="n0mJj6IprU6dOBCIdkEI-74">
        <path fill="none" d="M345.5 493.5h40v30h-40z"/>
        <text x="383" y="512" fill="light-dark(#000000, #ffffff)" font-family="Helvetica" font-size="12" text-anchor="end">(2)</text>
      </g>
      <g data-cell-id="0E-DGzNV6VpsQ5GaN065-4">
        <path fill="none" d="M210.5 35.5h80v30h-80z"/>
        <text x="250" y="55" fill="#C00" font-family="Helvetica" font-size="16" text-anchor="middle">Offered</text>
      </g>
      <g data-cell-id="0E-DGzNV6VpsQ5GaN065-5">
        <path fill="none" d="M210.5 55.5h80v30h-80z"/>
        <text x="250" y="75" fill="#C00" font-family="Helvetica" font-size="16" text-anchor="middle">position</text>
      </g>
      <g data-cell-id="0E-DGzNV6VpsQ5GaN065-6">
        <path fill="none" d="M214.5 75.5h70v30h-70z"/>
        <text x="249" y="95" fill="#C00" font-family="Helvetica" font-size="16" text-anchor="middle">PT20S</text>
      </g>
      <g data-cell-id="0E-DGzNV6VpsQ5GaN065-7">
        <path fill="none" d="M530.5 35.5h80v30h-80z"/>
        <text x="570" y="55" fill="#C00" font-family="Helvetica" font-size="16" text-anchor="middle">Offered</text>
      </g>
      <g data-cell-id="0E-DGzNV6VpsQ5GaN065-8">
        <path fill="none" d="M530.5 55.5h80v30h-80z"/>
        <text x="570" y="75" fill="#C00" font-family="Helvetica" font-size="16" text-anchor="middle">position</text>
      </g>
      <g data-cell-id="0E-DGzNV6VpsQ5GaN065-9">
        <path fill="none" d="M534.5 75.5h70v30h-70z"/>
        <text x="569" y="95" fill="#C00" font-family="Helvetica" font-size="16" text-anchor="middle">PT15S</text>
      </g>
    </g>
  </g>
  <switch>
    <a xlink:href="https://www.drawio.com/doc/faq/svg-export-text-problems" target="_blank" transform="translate(0 -5)">
      <text x="50%" y="100%" font-size="10" text-anchor="middle">Text is not SVG - cannot display</text>
    </a>
  </switch>
</svg>
